<svg id="Шар_1" data-name="Шар 1" xmlns="http://www.w3.org/2000/svg" xmlns:xlink="http://www.w3.org/1999/xlink" viewBox="0 0 1000 1000"><defs><linearGradient id="Градієнт_без_назви_21" x1="323.27" y1="397.03" x2="676.74" y2="397.03" gradientUnits="userSpaceOnUse"><stop offset="0" stop-color="#fff939"/><stop offset="0.49" stop-color="#f9d304"/><stop offset="1" stop-color="#dfb100"/></linearGradient><linearGradient id="Градієнт_без_назви_5" x1="652.72" y1="86.06" x2="641.57" y2="692.69" gradientUnits="userSpaceOnUse"><stop offset="0" stop-color="#2d3740"/><stop offset="1" stop-color="#161f25"/></linearGradient></defs><circle cx="500.01" cy="397.03" r="235.06" style="fill:none;stroke:#151f28;stroke-miterlimit:10;stroke-width:10.283036539668977px"/><path d="M500,87.08h0c-165.62,0-299.85,134.26-299.85,299.86a246.63,246.63,0,0,0,3.74,40.88c30.5,181.81,239.53,485,296.11,485.1h0c3.62,0,7.9-1.26,12.69-3.64,75.91-37.78,287.16-360.1,287.16-522.34C799.85,221.34,665.6,87.08,500,87.08Z" style="fill:none;stroke:#a8a8a8;stroke-miterlimit:10;stroke-width:48.49146617758873px"/><path d="M500,87.08h0c-165.62,0-299.85,134.26-299.85,299.86a246.63,246.63,0,0,0,3.74,40.88c30.5,181.81,239.53,485,296.11,485.1h0c3.62,0,7.9-1.26,12.69-3.64,75.91-37.78,287.16-360.1,287.16-522.34C799.87,221.34,665.62,87.08,500,87.08Zm21.35,544.1q-10.56,1-21.35,1h0c-119.43,0-218-89-233.1-204.33a235.17,235.17,0,0,1-2-30.78C264.89,267.18,370.15,162,500,161.92h0c129.85,0,235.11,105.26,235.11,235.12C735.13,519.69,641.23,620.4,521.37,631.18Z" style="fill:#2d3740"/><path d="M676.74,397A176.74,176.74,0,1,1,500,220.29,176.72,176.72,0,0,1,676.74,397Z" style="fill:url(#Градієнт_без_назви_21)"/><path d="M676.74,397A176.74,176.74,0,1,1,500,220.29,176.72,176.72,0,0,1,676.74,397Z" style="fill:#fde009"/><path d="M676.74,397H323.27a176.74,176.74,0,1,1,353.47,0Z" style="fill:#0fa5fd"/><path d="M799.86,386.94c0,172.51-238.83,526-299.85,526h0V632.15h0c129.86,0,235.11-105.26,235.11-235.11S629.87,162,500,162h0V87.08h0C665.61,87.08,799.86,221.34,799.86,386.94Z" style="fill:url(#Градієнт_без_назви_5)"/></svg>