<svg id="Шар_1" data-name="Шар 1" xmlns="http://www.w3.org/2000/svg" xmlns:xlink="http://www.w3.org/1999/xlink" viewBox="0 0 1500 1500"><defs><linearGradient id="Градієнт_без_назви_21" x1="596.54" y1="408.41" x2="894.17" y2="408.41" gradientUnits="userSpaceOnUse"><stop offset="0" stop-color="#fff939"/><stop offset="0.49" stop-color="#f9d304"/><stop offset="1" stop-color="#dfb100"/></linearGradient><linearGradient id="Градієнт_без_назви_5" x1="873.94" y1="146.57" x2="864.56" y2="657.36" gradientUnits="userSpaceOnUse"><stop offset="0" stop-color="#2d3740"/><stop offset="1" stop-color="#161f25"/></linearGradient></defs><path d="M957.72,872.28c0,11.36-75.62,20.55-168.92,20.55-12,0-23.71-.15-35-.43,26.76-10.79,43-25,43.05-40.64C886.41,852.26,957.72,861.25,957.72,872.28Z" style="fill:#2d3740"/><path d="M1035.23,887.05l-25.16,1.46c-9,.52-16.81-5.33-16.81-13.1h0c0-7.78,7.82-13.63,16.81-13.11l25.16,1.46c6.61.38,11.65,5.58,11.65,11.65h0C1046.88,881.47,1041.84,886.67,1035.23,887.05Z" style="fill:#2d3740"/><rect x="643.61" y="861.33" width="53.63" height="28.15" rx="14.08" style="fill:#2d3740"/><rect x="550.93" y="862.68" width="48.48" height="25.45" rx="12.73" style="fill:#2d3740"/><rect x="464.46" y="863.55" width="37.97" height="23.71" rx="11.85" style="fill:#2d3740"/><circle cx="745.36" cy="408.41" r="197.92" style="fill:none;stroke:#151f28;stroke-miterlimit:10;stroke-width:8.658369632282668px"/><circle cx="1072.47" cy="1255.26" r="14.75" style="fill:#121c26"/><circle cx="418.24" cy="1255.26" r="14.75" style="fill:#121c26"/><path d="M332.26,996.9v154.48H319.37l-78.56-76.1V1150H200.24V995.57h13.08l78.29,75.82V996.9Z" style="fill:#121c26"/><path d="M456.69,1132.05H399.64l-7.77,17.81H347.51l71-154.66h19.24l71.08,154.66H464.37Zm-12.89-29.67-15.63-36.2-15.74,36.2Z" style="fill:#121c26"/><path d="M511.37,1124l24.55-24.07c6.35,9.38,18.19,15.07,31,15.07,8.62,0,17.06-3.13,17.06-9.38,0-7.87-15.64-14.79-30.62-21.42-19.33-8.34-35.91-21-35.91-44.07,0-26.44,25.11-45.3,54.11-45.3,23.31,0,41.51,11,47.48,26.06l-23.41,22.55c-4.55-8-16.3-11.56-23.6-11.56-8.34,0-14.31,4.27-14.31,9.48,0,7,10.81,9.29,27.3,16.21,23.88,10,39.71,24.64,39.71,47.19,0,29.1-27.11,47.2-57.72,47.2C541.89,1152,519.05,1140.86,511.37,1124Z" style="fill:#121c26"/><path d="M769.71,997.09v152.77H729.25v-57.52h-45.4v57.52H643.29V997.09h40.56v57.34h45.4V997.09Z" style="fill:#121c26"/><path d="M796.24,997.09h40.57v152.77H796.24Z" style="fill:#121c26"/><path d="M1027.2,1035H990.62v114.86H950V1035H913.28V997.09H1027.2Z" style="fill:#121c26"/><path d="M1043.12,1094.33V997.09H1084v97.14c0,12.7,10.9,21.14,22.47,21.14s22.65-8.63,22.65-21.14V997.09h40.84v97.24c0,35.06-28.43,59.8-63.4,59.8S1043.12,1129.39,1043.12,1094.33Z" style="fill:#121c26"/><path d="M1299.76,1035h-36.59v114.86h-40.65V1035h-36.68V997.09h113.92Z" style="fill:#121c26"/><path d="M518.05,1265.7v-40h12.84v40a11.67,11.67,0,1,0,23.33,0v-40h12.84v40c0,14.38-11,24.86-24.51,24.86S518.05,1280.08,518.05,1265.7Z" style="fill:#121c26"/><path d="M609.57,1289.18l-19.31-27.82v27.82H577.54v-63.51h12.72v27.46l17.85-27.46h14.74l-20.37,31.09,22.61,32.42Z" style="fill:#121c26"/><path d="M664.17,1289.18l-20.21-30v30H631.2l0-63.51h20.72c11.86,0,21.59,9.14,21.59,20.57,0,8.15-4.92,15.28-11.74,17.69l18,25.25Zm-20.25-34.91,8.2,0a8,8,0,1,0,0-16h-8.2Z" style="fill:#121c26"/><path d="M724.41,1280.32H699l-4.06,8.86H681.15l30.34-65.09h.39l30.38,65.09H728.43Zm-5-10.88-7.72-17-7.76,17Z" style="fill:#121c26"/><path d="M748.6,1225.67h12.77v63.51H748.6Z" style="fill:#121c26"/><path d="M823.46,1225.51v64.85h-.59l-37.71-36.68v35.58H772.4v-64.77H773l37.62,36.6v-35.58Z" style="fill:#121c26"/><path d="M834.49,1225.67h12.76v63.51H834.49Z" style="fill:#121c26"/><path d="M896.86,1280.32H871.44l-4.05,8.86H853.6l30.33-65.09h.4l30.37,65.09H900.87Zm-5-10.88-7.72-17-7.76,17Z" style="fill:#121c26"/><path d="M972.11,1225.51v64.85h-.6l-37.7-36.68v35.58H921.05v-64.77h.63l37.62,36.6v-35.58Z" style="fill:#121c26"/><path d="M745.37,147.43h0c-139.45,0-252.47,113.05-252.47,252.48A208.08,208.08,0,0,0,496,434.34c25.68,153.08,201.69,408.38,249.32,408.45h0c3,0,6.65-1.06,10.69-3.07C820,807.91,997.85,536.52,997.85,399.91,997.85,260.48,884.81,147.43,745.37,147.43Zm18,458.14q-8.9.79-18,.81h0a197.93,197.93,0,0,1-198-198c0-109.34,88.63-198,198-198h0c109.34,0,198,88.63,198,198C943.34,511.69,864.27,596.49,763.35,605.57Z" style="fill:#2d3740"/><path d="M894.17,408.42A148.82,148.82,0,1,1,745.36,259.6,148.8,148.8,0,0,1,894.17,408.42Z" style="fill:url(#Градієнт_без_назви_21)"/><path d="M894.17,408.42A148.82,148.82,0,1,1,745.36,259.6,148.8,148.8,0,0,1,894.17,408.42Z" style="fill:#fde009"/><path d="M894.17,408.42H596.54a148.82,148.82,0,1,1,297.63,0Z" style="fill:#0fa5fd"/><path d="M997.84,399.91c0,145.26-201.1,442.88-252.48,442.88h0V606.38h0c109.34,0,198-88.63,198-198s-88.63-197.93-198-197.93h0V147.43h0C884.8,147.43,997.84,260.48,997.84,399.91Z" style="fill:url(#Градієнт_без_назви_5)"/></svg>